<svg width="622" height="466" viewBox="0 0 622 466" fill="none" xmlns="http://www.w3.org/2000/svg">
<rect width="622" height="466" fill="#E5E5E5"/>
<g id="ledger-unlock-message" clip-path="url(#clip0)">
<rect width="1264" height="1012" transform="translate(-642 -64)" fill="white"/>
<g id="bg-pattern">
<path id="Rectangle 3.8" d="M478.245 455.32C482.672 459.539 489.85 459.539 494.278 455.32L840.284 125.579C844.711 121.36 844.711 114.519 840.284 110.3C835.856 106.081 828.678 106.081 824.251 110.3L478.245 440.041C473.817 444.26 473.817 451.101 478.245 455.32Z" fill="#002B49"/>
<path id="Rectangle 3.9" d="M485.114 420.857C491.511 426.953 501.883 426.953 508.279 420.857L847.153 97.9132C853.55 91.817 853.55 81.933 847.153 75.8368L844.073 72.9018C837.676 66.8055 827.305 66.8055 820.908 72.9018L482.034 395.845C475.637 401.941 475.637 411.825 482.034 417.922L485.114 420.857Z" fill="#1CC886"/>
<path id="Rectangle 3.10" d="M498.652 323.009C505.049 329.105 515.421 329.105 521.818 323.009L606.129 242.661C612.525 236.565 612.525 226.681 606.129 220.585L605.511 219.996C599.114 213.9 588.742 213.9 582.345 219.996L498.034 300.344C491.638 306.44 491.638 316.324 498.034 322.42L498.652 323.009Z" fill="#002B49"/>
<path id="Rectangle 3.24" d="M10.1176 118.045C15.7055 123.37 24.7652 123.37 30.3531 118.045L89.5318 61.6484C95.1197 56.3232 95.1197 47.6893 89.5318 42.3641C83.9439 37.0389 74.8841 37.0389 69.2962 42.3641L10.1176 98.7608C4.52969 104.086 4.5297 112.72 10.1176 118.045Z" fill="#002B49"/>
<path id="Rectangle 3.15" d="M185.652 454.962C192.049 461.058 202.421 461.058 208.818 454.962L502.16 175.409C508.557 169.312 508.557 159.428 502.16 153.332L501.543 152.744C495.146 146.647 484.774 146.647 478.377 152.744L185.034 432.297C178.638 438.393 178.638 448.277 185.034 454.373L185.652 454.962Z" fill="#117A52"/>
<path id="Rectangle 3.16" d="M215.652 340.603C222.049 346.699 232.421 346.699 238.818 340.603L546.721 47.1733C553.118 41.0771 553.118 31.1931 546.721 25.0969L546.104 24.5082C539.707 18.412 529.335 18.412 522.938 24.5082L215.034 317.938C208.638 324.034 208.638 333.918 215.034 340.014L215.652 340.603Z" fill="#002B49"/>
<path id="Rectangle 3.19" d="M130.653 357.757C137.05 363.853 147.421 363.853 153.818 357.757L411.528 112.162C417.924 106.066 417.924 96.1816 411.528 90.0854L403.264 82.2105C396.867 76.1142 386.496 76.1142 380.099 82.2105L122.389 327.805C115.992 333.902 115.992 343.786 122.389 349.882L130.653 357.757Z" fill="#002B49"/>
<path id="Rectangle 3.20" d="M199.442 250.206C205.839 256.302 216.21 256.302 222.607 250.206L411.049 70.6226C417.445 64.5264 417.446 54.6424 411.049 48.5462L398.641 36.722C392.244 30.6257 381.873 30.6258 375.476 36.722L187.034 216.305C180.637 222.401 180.637 232.285 187.034 238.381L199.442 250.206Z" fill="#1CC886"/>
<path id="Rectangle 3.17" d="M329.652 271.987C336.049 278.084 346.42 278.084 352.817 271.987L444.472 184.641C450.869 178.545 450.869 168.661 444.472 162.565L443.854 161.976C437.457 155.88 427.086 155.88 420.689 161.976L329.034 249.322C322.637 255.419 322.637 265.303 329.034 271.399L329.652 271.987Z" fill="#1CC886"/>
<path id="Rectangle 3.12" d="M387.967 421.907C392.67 426.389 400.295 426.389 404.998 421.907L458.883 370.555C463.586 366.073 463.586 358.807 458.883 354.325C454.18 349.843 446.555 349.843 441.852 354.325L387.967 405.677C383.264 410.159 383.264 417.425 387.967 421.907Z" fill="#1CC886"/>
<path id="Rectangle 3.13" d="M349.967 385.458C354.67 389.939 362.295 389.939 366.998 385.458L441.209 314.735C445.912 310.254 445.912 302.987 441.209 298.505C436.506 294.023 428.881 294.023 424.178 298.505L349.967 369.227C345.264 373.709 345.264 380.976 349.967 385.458Z" fill="#1CC886"/>
<path id="Rectangle 3.21" d="M118.151 205.516C120.544 207.796 124.423 207.796 126.816 205.516L192.757 142.675C195.15 140.394 195.15 136.697 192.757 134.417C190.364 132.136 186.485 132.136 184.092 134.417L118.151 197.258C115.758 199.538 115.758 203.235 118.151 205.516Z" fill="#1CC886"/>
<path id="Rectangle 3.23" d="M132.785 66.3784C135.177 68.6587 139.057 68.6587 141.45 66.3784L183.448 26.3548C185.841 24.0744 185.841 20.3772 183.448 18.0968C181.055 15.8164 177.175 15.8164 174.782 18.0968L132.785 58.1204C130.392 60.4008 130.392 64.098 132.785 66.3784Z" fill="#1CC886"/>
<path id="Rectangle 3.22" d="M99.3978 153.505C105.423 159.246 115.191 159.246 121.215 153.505L249.144 31.5905C255.168 25.849 255.168 16.5401 249.144 10.7985C243.119 5.05696 233.351 5.05696 227.326 10.7985L99.3978 132.713C93.373 138.454 93.373 147.763 99.3978 153.505Z" fill="#1CC886"/>
<path id="Rectangle 3.18" d="M323.967 336.855C328.67 341.337 336.295 341.337 340.998 336.855L415.209 266.133C419.912 261.651 419.912 254.384 415.209 249.902C410.506 245.42 402.881 245.42 398.178 249.902L323.967 320.624C319.264 325.106 319.264 332.373 323.967 336.855Z" fill="#002B49"/>
<g id="Rectangle 3.11" style="mix-blend-mode:overlay">
<path d="M496.934 348.055C498.757 349.792 501.713 349.792 503.536 348.055L604.41 251.923C606.233 250.185 606.233 247.368 604.41 245.631C602.587 243.893 599.63 243.893 597.807 245.631L496.934 341.762C495.11 343.5 495.11 346.317 496.934 348.055Z" fill="#47C294"/>
</g>
<g id="Rectangle 3.14" style="mix-blend-mode:overlay">
<path d="M288.753 418.063C290.576 419.801 293.532 419.801 295.356 418.063L496.374 226.494C498.197 224.757 498.197 221.939 496.374 220.202C494.551 218.464 491.595 218.464 489.771 220.202L288.753 411.771C286.93 413.508 286.93 416.326 288.753 418.063Z" fill="#47C294"/>
</g>
</g>
</g>
<defs>
<clipPath id="clip0">
<rect width="1264" height="1012" fill="white" transform="translate(-642 -64)"/>
</clipPath>
</defs>
</svg>
