<svg width="633" height="1016" viewBox="0 0 633 1016" version="1.1" xmlns="http://www.w3.org/2000/svg" xmlns:xlink="http://www.w3.org/1999/xlink">
<g id="Canvas" fill="none">
<g id="bg-pattern">
<g id="Rectangle 3.24">
<path d="M 0 13.9764C 0 6.25745 6.25745 0 13.9764 0L 95.7242 0C 103.443 0 109.701 6.25745 109.701 13.9764C 109.701 21.6954 103.443 27.9528 95.7242 27.9528L 13.9764 27.9528C 6.25746 27.9528 0 21.6954 0 13.9764Z" transform="matrix(0.723917 -0.689887 -0.723917 -0.689887 275.657 101.845)" fill="#002B49"/>
</g>
<g id="Rectangle 3.15">
<path d="M 0 16C 0 7.16344 7.16344 0 16 0L 421.216 0C 430.053 0 437.216 7.16344 437.216 16L 437.216 16.8533C 437.216 25.6899 430.053 32.8533 421.216 32.8533L 16 32.8533C 7.16345 32.8533 0 25.6899 0 16.8533L 0 16Z" transform="matrix(0.723917 -0.689887 -0.723917 -0.689887 452.656 440.157)" fill="#117A52"/>
</g>
<g id="Rectangle 3.16">
<path d="M 0 16C 0 7.16344 7.16344 0 16 0L 441.33 0C 450.167 0 457.33 7.16344 457.33 16L 457.33 16.8533C 457.33 25.6899 450.167 32.8533 441.33 32.8533L 16 32.8533C 7.16345 32.8533 0 25.6899 0 16.8533L 0 16Z" transform="matrix(0.723917 -0.689887 -0.723917 -0.689887 482.656 325.797)" fill="#002B49"/>
</g>
<g id="Rectangle 3.19">
<path d="M 0 16C 0 7.16344 7.16344 0 16 0L 371.993 0C 380.83 0 387.993 7.16344 387.993 16L 387.993 27.4148C 387.993 36.2514 380.83 43.4148 371.993 43.4148L 16 43.4148C 7.16344 43.4148 0 36.2514 0 27.4148L 0 16Z" transform="matrix(0.723917 -0.689887 -0.723917 -0.689887 397.656 342.951)" fill="#002B49"/>
</g>
<g id="Rectangle 3.20">
<path d="M 0 16C 0 7.16344 7.16344 0 16 0L 276.308 0C 285.145 0 292.308 7.16344 292.308 16L 292.308 33.1394C 292.308 41.9759 285.145 49.1394 276.308 49.1394L 16 49.1394C 7.16345 49.1394 0 41.9759 0 33.1394L 0 16Z" transform="matrix(0.723917 -0.689887 -0.723917 -0.689887 466.446 235.401)" fill="#1CC886"/>
</g>
<g id="Rectangle 3.17">
<path d="M 0 16C 0 7.16344 7.16344 0 16 0L 142.61 0C 151.446 0 158.61 7.16344 158.61 16L 158.61 16.8533C 158.61 25.6899 151.446 32.8533 142.61 32.8533L 16 32.8533C 7.16344 32.8533 0 25.6899 0 16.8533L 0 16Z" transform="matrix(0.723917 -0.689887 -0.723917 -0.689887 596.656 257.182)" fill="#1CC886"/>
</g>
<g id="Rectangle 3.13">
<path d="M 0 11.7631C 0 5.26651 5.26651 0 11.7631 0L 114.276 0C 120.772 0 126.039 5.26651 126.039 11.7631C 126.039 18.2597 120.772 23.5262 114.276 23.5262L 11.7631 23.5262C 5.26651 23.5262 0 18.2597 0 11.7631Z" transform="matrix(0.723917 -0.689887 -0.723917 -0.689887 613.904 367.729)" fill="#1CC886"/>
</g>
<g id="Rectangle 3.21">
<path d="M 0 5.985C 0 2.67957 2.67957 0 5.985 0L 97.0742 0C 100.38 0 103.059 2.67957 103.059 5.985C 103.059 9.29042 100.38 11.97 97.0742 11.97L 5.985 11.97C 2.67958 11.97 0 9.29042 0 5.985Z" transform="matrix(0.723917 -0.689887 -0.723917 -0.689887 377.904 183.802)" fill="#1CC886"/>
</g>
<g id="Rectangle 3.23">
<path d="M 0 5.985C 0 2.67957 2.67957 0 5.985 0L 63.9997 0C 67.3052 0 69.9847 2.67957 69.9847 5.985C 69.9847 9.29042 67.3052 11.97 63.9997 11.97L 5.985 11.97C 2.67957 11.97 0 9.29042 0 5.985Z" transform="matrix(0.723917 -0.689887 -0.723917 -0.689887 392.539 44.6651)" fill="#1CC886"/>
</g>
<g id="Rectangle 3.22">
<path d="M 0 15.0691C 0 6.74669 6.74669 0 15.0691 0L 191.786 0C 200.108 0 206.855 6.74669 206.855 15.0691C 206.855 23.3916 200.108 30.1383 191.786 30.1383L 15.0692 30.1383C 6.74669 30.1383 0 23.3916 0 15.0691Z" transform="matrix(0.723917 -0.689887 -0.723917 -0.689887 365.728 138.058)" fill="#1CC886"/>
</g>
<g id="Rectangle 3.18">
<path d="M 0 11.7631C 0 5.26651 5.26651 0 11.7631 0L 114.276 0C 120.772 0 126.039 5.26651 126.039 11.7631C 126.039 18.2597 120.772 23.5262 114.276 23.5262L 11.7631 23.5262C 5.26651 23.5262 0 18.2597 0 11.7631Z" transform="matrix(0.723917 -0.689887 -0.723917 -0.689887 587.904 319.127)" fill="#002B49"/>
</g>
<g id="Rectangle 3.14" style="mix-blend-mode:overlay">
<path d="M 0 4.56037C 0 2.04175 2.04175 0 4.56037 0L 282.242 0C 284.761 0 286.802 2.04175 286.802 4.56037C 286.802 7.07899 284.761 9.12074 282.242 9.12074L 4.56036 9.12074C 2.04174 9.12074 0 7.07899 0 4.56037Z" transform="matrix(0.723917 -0.689887 -0.723917 -0.689887 547.476 395.366)" fill="#47C294"/>
</g>
<g id="Group 11">
<g id="Rectangle 3.25">
<path d="M 0 16C 0 7.16344 7.16344 0 16 0L 192.239 0C 201.076 0 208.239 7.16344 208.239 16L 208.239 27.4148C 208.239 36.2514 201.076 43.4148 192.239 43.4148L 16 43.4148C 7.16345 43.4148 0 36.2514 0 27.4148L 0 16Z" transform="matrix(0.723917 -0.689887 -0.723917 -0.689887 175.429 840.292)" fill="#002B49"/>
</g>
<g id="Rectangle 3.26">
<path d="M 0 11.7631C 0 5.26651 5.26651 0 11.7631 0L 86.1988 0C 92.6953 0 97.9618 5.26651 97.9618 11.7631C 97.9618 18.2597 92.6953 23.5262 86.1988 23.5262L 11.7631 23.5262C 5.26651 23.5262 0 18.2597 0 11.7631Z" transform="matrix(0.723917 -0.689887 -0.723917 -0.689887 385.031 773.582)" fill="#1CC886"/>
</g>
<g id="Rectangle 3.27">
<path d="M 0 5.985C 0 2.67957 2.67957 0 5.985 0L 97.0742 0C 100.38 0 103.059 2.67957 103.059 5.985C 103.059 9.29042 100.38 11.97 97.0742 11.97L 5.985 11.97C 2.67958 11.97 0 9.29042 0 5.985Z" transform="matrix(0.723917 -0.689887 -0.723917 -0.689887 360.665 727.839)" fill="#1CC886"/>
</g>
<g id="Rectangle 3.26_2">
<path d="M 0 16C 0 7.16344 7.16344 0 16 0L 484.111 0C 492.947 0 500.111 7.16344 500.111 16L 500.111 20.2544C 500.111 29.091 492.947 36.2544 484.111 36.2544L 16 36.2544C 7.16345 36.2544 0 29.091 0 20.2544L 0 16Z" transform="matrix(0.723917 -0.689887 -0.723917 -0.689887 20.2451 1022.31)" fill="#1CC886"/>
</g>
</g>
</g>
</g>
</svg>

