<svg width="334" height="64" viewBox="0 0 334 64" fill="none" xmlns="http://www.w3.org/2000/svg">
<g clip-path="url(#clip0)">
<circle cx="32" cy="32" r="30" transform="translate(132)" stroke="#80DBB8" stroke-width="4"/>
<circle cx="26" cy="26" r="26" transform="translate(138 6)" fill="#1DC887"/>
<path d="M19.1177 7.0544L0.00856694 0C-0.155813 2.95613 2.08614 4.50138 3.22766 4.90449C6.08147 5.88986 12.4055 8.11592 14.8712 9.13713C17.3369 10.1583 18.9579 12.6531 19.4601 13.7729L24.186 23.7162C23.8892 20.5137 23.3505 13.5444 23.0217 11.287C22.6929 9.02963 20.282 7.52469 19.1177 7.0544Z" transform="translate(138 13)" fill="white"/>
<path d="M14.5287 10.0105L2.95369 5.77789C3.93997 9.11025 6.01298 10.66 6.9262 11.0183L19.1177 15.5197C18.5698 12.7785 15.8301 10.7048 14.5287 10.0105Z" transform="translate(138 13)" fill="white"/>
<path d="M19.4601 16.3259L7.81659 12.1604C8.03576 14.5791 10.4649 16.3035 11.6521 16.8634L21.5834 20.4242C21.1496 19.5284 20.2272 17.6024 20.0081 17.0649C19.7889 16.5274 19.5515 16.3483 19.4601 16.3259Z" transform="translate(138 13)" fill="white"/>
<path d="M19.1177 7.0544L0.00856694 0C-0.155813 2.95613 2.08614 4.50138 3.22766 4.90449C6.08147 5.88986 12.4055 8.11592 14.8712 9.13713C17.3369 10.1583 18.9579 12.6531 19.4601 13.7729L24.186 23.7162C23.8892 20.5137 23.3505 13.5444 23.0217 11.287C22.6929 9.02963 20.282 7.52469 19.1177 7.0544Z" transform="translate(190 13) scale(-1 1)" fill="white"/>
<path d="M14.5287 10.0105L2.95369 5.77789C3.93997 9.11025 6.01298 10.66 6.9262 11.0183L19.1177 15.5197C18.5698 12.7785 15.8301 10.7048 14.5287 10.0105Z" transform="translate(190 13) scale(-1 1)" fill="white"/>
<path d="M19.4601 16.3259L7.81659 12.1604C8.03576 14.5791 10.4649 16.3035 11.6521 16.8634L21.5834 20.4242C21.1496 19.5284 20.2272 17.6024 20.0081 17.0649C19.7889 16.5274 19.5515 16.3483 19.4601 16.3259Z" transform="translate(190 13) scale(-1 1)" fill="white"/>
<g filter="url(#filter0_d)">
<path d="M0.258781 0L3.39064e-08 0.886842V26.6209L0.258781 26.8814L12.1064 19.8204L0.258781 0Z" transform="translate(163.496 19.0811)" fill="#19A670"/>
<path d="M11.8476 0L0 19.8204L11.8476 26.8815V14.3909V0Z" transform="translate(151.907 19.0811)" fill="#18DAA3"/>
<path d="M0.145825 7.05739L1.46928e-07 7.23663V16.4037L0.145825 16.8331L12.0006 5.24192e-07L0.145825 7.05739Z" transform="translate(163.609 41.1669)" fill="#1AA670"/>
<path d="M11.8476 16.8332V7.05739L0 6.26751e-07L11.8476 16.8332Z" transform="translate(151.907 41.1667)" fill="#18DAA3"/>
<path d="M-1.35626e-07 12.4904L11.8475 5.42952L-1.35626e-07 -3.19073e-07V12.4904Z" transform="translate(163.755 33.472)" fill="#137B54"/>
<path d="M0 5.42952L11.8475 12.4905V0L0 5.42952Z" transform="translate(151.907 33.472)" fill="#147B55"/>
</g>
<path d="M28.584 22.32C31.08 23.184 33.12 24.6 34.704 26.568C36.288 28.536 37.08 31.032 37.08 34.056C37.08 38.76 35.496 42.264 32.328 44.568C29.16 46.872 24.864 48.024 19.44 48.024H0V0H17.784C23.4 0 27.552 1.128 30.24 3.384C32.976 5.64 34.344 8.856 34.344 13.032C34.344 15.384 33.816 17.256 32.76 18.648C31.752 19.992 30.36 21.216 28.584 22.32ZM7.92 20.016H18.72C20.976 20.016 22.8 19.56 24.192 18.648C25.632 17.736 26.352 16.08 26.352 13.68C26.352 11.136 25.632 9.336 24.192 8.28C22.8 7.224 20.76 6.696 18.072 6.696H7.92V20.016ZM19.368 41.4C22.296 41.4 24.624 40.848 26.352 39.744C28.08 38.592 28.944 36.576 28.944 33.696C28.944 30.816 28.032 28.896 26.208 27.936C24.432 26.928 22.08 26.424 19.152 26.424H7.992V41.4H19.368Z" transform="translate(0.687988 9.97601)" fill="#19A670"/>
<path d="M46.5469 0H78.0109V6.696H54.5389V20.592H74.9869V27.36H54.4669V41.328H78.0109V48.024H46.5469V0Z" transform="translate(0.687988 9.97601)" fill="#19A670"/>
<path d="M100.11 6.696H84.6304V0H123.582V6.696H108.03V48.024H100.11V6.696Z" transform="translate(0.687988 9.97601)" fill="#19A670"/>
<path d="M12.384 27.576L7.992 32.4V48.024H0V0H7.992V23.328L27.288 0H37.368L17.856 21.528L38.952 48.024H28.512L12.384 27.576Z" transform="translate(204.688 9.97601)" fill="#167C57"/>
<path d="M46.1953 0H77.6593V6.696H54.1873V20.592H74.6353V27.36H54.1153V41.328H77.6593V48.024H46.1953V0Z" transform="translate(204.688 9.97601)" fill="#167C57"/>
<path d="M129.063 0V48.024H121.935L95.9428 12.312V48.024H88.3828V0H96.0148L121.503 35.28V0H129.063Z" transform="translate(204.688 9.97601)" fill="#167C57"/>
</g>
<defs>
<filter id="filter0_d" x="23.9072" y="-108.919" width="279.703" height="294.919" filterUnits="userSpaceOnUse" color-interpolation-filters="sRGB">
<feFlood flood-opacity="0" result="BackgroundImageFix"/>
<feColorMatrix in="SourceAlpha" type="matrix" values="0 0 0 0 0 0 0 0 0 0 0 0 0 0 0 0 0 0 255 0"/>
<feOffset/>
<feGaussianBlur stdDeviation="64"/>
<feColorMatrix type="matrix" values="0 0 0 0 0.859383 0 0 0 0 0.83 0 0 0 0 1 0 0 0 1 0"/>
<feBlend mode="normal" in2="BackgroundImageFix" result="effect1_dropShadow"/>
<feBlend mode="normal" in="SourceGraphic" in2="effect1_dropShadow" result="shape"/>
</filter>
<clipPath id="clip0">
<rect width="333.063" height="64" fill="white" transform="translate(0.687988)"/>
</clipPath>
</defs>
</svg>
